<?xml version="1.0" encoding="UTF-8"?>
<svg xmlns="http://www.w3.org/2000/svg" viewBox="0 0 150 120">
  <defs>
    <style>
      .cls-1, .cls-2, .cls-3, .cls-4 {
        opacity: .1;
      }

      .cls-2, .cls-5, .cls-3, .cls-6, .cls-4, .cls-7, .cls-8, .cls-9 {
        stroke-width: 0px;
      }

      .cls-2, .cls-3, .cls-4, .cls-8 {
        isolation: isolate;
      }

      .cls-2, .cls-8 {
        fill: #000;
      }

      .cls-5 {
        fill: #3f3d56;
      }

      .cls-3 {
        fill: #fff;
      }

      .cls-6 {
        fill: #be6f72;
      }

      .cls-4, .cls-9 {
        fill: #6c63ff;
      }

      .cls-7 {
        fill: #e3e8f4;
      }

      .cls-8 {
        opacity: .2;
      }
    </style>
  </defs>
  <path class="cls-4" d="M149.47,69.66c-.54-4.8-2.09-9.35-4.12-13.41-4.58-9.17-11.53-16.02-19.04-20.92-.07-.05-.15-.09-.22-.14.83-.98,1.42-2.14,1.73-3.39,2.31-9.46-13.27-21.39-34.78-26.64-17.26-4.21-33.11-2.84-39.89,2.76-15.82-.99-32.32,8.74-43.28,23.73-3.92,5.37-7.24,11.7-8.69,18.87-1.77,8.68-.71,18.02,1.77,26.39,1.91,6.45,4.71,12.49,8.22,17.67.25.37.5.73.76,1.09.44.62.9,1.22,1.36,1.81,2.89,3.69,6.19,6.82,9.81,9.18,2.06,1.35,4.27,2.45,6.59,3.29,6.18,2.21,12.81,2.3,18.92,0,1.02-.39,2.02-.83,2.99-1.34.54-.28,1.07-.58,1.59-.9,1.01-.62,2-1.31,2.99-2.04,1.37-1,2.71-2.06,4.09-3.04l.12-.09c1.61-1.16,3.25-2.22,4.95-2.98,1.13-.52,2.33-.89,3.57-1.08,1.82-.26,3.68-.11,5.45.42.33.1.67.21,1,.33,1.08.4,2.12.88,3.12,1.45,4.35,2.41,8.51,6.26,12.78,9.27.6.43,1.22.85,1.84,1.24,5.45,3.46,11.44,5.14,17.37,6.78,6.72,1.85,13.83,3.65,20.33.77,3.77-1.67,7.03-4.84,9.65-8.78,1.15-1.74,2.15-3.56,3.01-5.46.43-.94.82-1.89,1.19-2.86,2.15-5.65,3.4-11.86,4.26-18.09.64-4.58,1.07-9.28.57-13.88Z"/>
  <g class="cls-1">
    <path class="cls-5" d="M47.25,80.13c.05.13.09.26.15.39.99-.78,1.96-1.58,2.89-2.41.56-.25,1.02-.67,1.31-1.21.27-.25.54-.51.8-.77-.11-.13-.24-.25-.37-.36-.89-.78-2-1.11-3-.78s-1.7,1.25-1.95,2.41c-.19.91-.13,1.85.17,2.72Z"/>
    <path class="cls-5" d="M45.59,75.12c.28.88.79,1.67,1.48,2.28.89.78,1.99,1.11,3,.77.07-.02.14-.05.21-.08.56-.25,1.02-.67,1.31-1.21.2-.35.35-.73.43-1.13.35-1.84-.27-3.74-1.66-5.01-.89-.78-2-1.11-3-.78s-1.7,1.25-1.95,2.41c-.19.91-.13,1.85.18,2.73Z"/>
    <ellipse class="cls-5" cx="47.06" cy="69.08" rx="3.3" ry="4.32" transform="translate(-19.3 18.26) rotate(-18.29)"/>
    <ellipse class="cls-5" cx="45.41" cy="64.07" rx="3.3" ry="4.32" transform="translate(-17.81 17.49) rotate(-18.29)"/>
    <ellipse class="cls-5" cx="43.75" cy="59.07" rx="3.3" ry="4.32" transform="translate(-16.33 16.72) rotate(-18.29)"/>
    <path class="cls-9" d="M44.14,20.92c.25-.69.45-1.39.6-2.1l-8.67,1.37,8.92-2.87c.48-4.32-.83-8.65-3.64-11.97l-9.89,10.14,8.33-11.73c-6.52-5.79-16.5-5.21-22.29,1.31-5.79,6.52-5.21,16.5,1.31,22.29.56.49,1.15.95,1.76,1.36-.39,1.07-.66,2.17-.81,3.3l12.51,2.02-12.65-.06c-.04,5.34,2.62,10.33,7.07,13.28-2.97,8.2,1.28,17.25,9.48,20.22,8.2,2.97,17.25-1.28,20.22-9.48,2.48-6.85-.05-14.51-6.13-18.54,2.48-6.85-.05-14.52-6.13-18.54h0Z"/>
    <path class="cls-2" d="M20.43,39.04c1.11,3.36,3.32,6.26,6.27,8.21-2.96,8.2,1.29,17.25,9.49,20.21,8.2,2.96,17.25-1.29,20.21-9.49,2.47-6.85-.06-14.5-6.13-18.52,1.16-3.22-30.4-2.1-29.85-.41Z"/>
  </g>
  <path class="cls-5" d="M58.81,37.47c-.38-.77-.52-1.63-.65-2.48-.8-5-1.54-10.4.62-14.93.34-.71.75-1.41,1.36-1.89.65-.52,1.45-.77,2.19-1.11,2.17-.98,3.92-2.73,5.83-4.18s4.21-2.67,6.55-2.3c1.21.19,2.32.79,3.49,1.17,3.3,1.07,7.12.37,10.09,2.23,1.07.67,1.95,1.63,2.81,2.57l3.83,4.22c1.04,1.14,2.1,2.31,2.73,3.75s.76,3.2-.04,4.53c-.4.67-1.04,1.26-1.11,2.05-.08.86.55,1.6.78,2.43.6,2.19-1.61,4.07-3.63,4.94-6.09,2.61-12.8,2.31-19.25,2.2-4.8-.08-12.82,2.44-15.59-3.2Z"/>
  <path class="cls-6" d="M69.65,48.31c-.42,1.01-1.33,1.73-2.23,2.35s-1.86,1.23-2.94,1.28c1.91,2.46,4.52,4.26,7.08,6.03,1.19.82,2.4,1.64,3.75,2.11,1.25.43,2.57.53,3.87.71,1.66.23,3.31.58,4.97.51,2.97-.12,5.81-1.62,7.78-3.85s3.1-5.13,3.4-8.08c-1.06-.02-2.03-.6-2.88-1.24-1.04-.78-2.02-1.68-2.69-2.79-.73-1.21-1.06-2.6-1.39-3.98-3.51-.11-7.03-.21-10.54-.14-1.28.02-2.56.07-3.81.39-1.19.3-3.67,1.08-4.4,2.15-.42.62,0,1.25.15,1.92.19.88.24,1.79-.11,2.63Z"/>
  <path class="cls-2" d="M69.65,48.31c-.42,1.01-1.33,1.73-2.23,2.35s-1.86,1.23-2.94,1.28c1.91,2.46,4.52,4.26,7.08,6.03,1.19.82,2.4,1.64,3.75,2.11,1.25.43,2.57.53,3.87.71,1.66.23,3.31.58,4.97.51,2.97-.12,5.81-1.62,7.78-3.85s3.1-5.13,3.4-8.08c-1.06-.02-2.03-.6-2.88-1.24-1.04-.78-2.02-1.68-2.69-2.79-.73-1.21-1.06-2.6-1.39-3.98-3.51-.11-7.03-.21-10.54-.14-1.28.02-2.56.07-3.81.39-1.19.3-3.67,1.08-4.4,2.15-.42.62,0,1.25.15,1.92.19.88.24,1.79-.11,2.63Z"/>
  <path class="cls-7" d="M73.63,52.47c1.01,1.25,2.04,2.53,3.42,3.35.42.25.89.45,1.38.44.72-.03,1.32-.55,1.85-1.04,2.65-2.47,5.17-5.07,7.54-7.81.74-.86,1.51-1.75,2.53-2.25.92,8.3,1.16,16.66.72,24.99,0,.16-.03.31-.11.45-.16.24-.49.27-.78.28-8.51.32-17.36.58-25.15-2.86.54-1.61.45-3.34.51-5.04.09-2.78.57-5.53,1.23-8.22.33-1.32.7-2.63,1.09-3.93.33-1.09.58-3.02,1.31-3.84,1.69,1.51,3.04,3.72,4.46,5.49Z"/>
  <polygon class="cls-5" points="77.49 56.51 78.55 56.51 81.26 61.03 78.4 68.12 74.93 61.19 77.49 56.51"/>
  <path class="cls-9" d="M77.4,63.66c-.98-1.43-1.66-3.05-1.99-4.75-.11-.55-.18-1.1-.37-1.62-.29-.77-.83-1.42-1.31-2.09-1.81-2.48-2.97-5.36-3.38-8.4-.19-1.38-.31-2.96-1.42-3.79-.7-.52-1.63-.6-2.51-.59-3.38.08-6.62,1.38-9.13,3.65-.42.41-.86.8-1.32,1.16-.47.32-.98.6-1.51.82-1.34.6-2.73,1.1-4.19,1.26-.37.02-.74.08-1.1.18-.43.15-.79.47-1.16.75-1.17.9-2.51,1.55-3.95,1.91-2.02,4.7-3.59,9.58-4.67,14.58-.27,1.24-.52,2.5-.89,3.71-.51,1.69-1.27,3.3-1.78,4.99-2.01,6.73.1,14.06-1.25,20.95l72.52.1c-1.14-1.77-.73-4.01-.83-6.12-.09-1.94-.58-3.83-.92-5.74-.57-3.19-.72-6.44-.77-9.69-.02-1.37-.03-2.78.5-4.04.99-2.37,3.57-3.62,6.01-4.42,1.17-.38,2.39-.73,3.32-1.55.95-.85,1.44-2.09,1.74-3.32-1.64-3.24-3.78-6.33-6.48-8.76-1.01-.9-2.1-1.75-2.95-2.81-.52-.65-.95-1.37-1.53-1.96-1.44-1.5-3.62-2.06-5.69-2.14-.64-.03-1.29-.01-1.91-.17-1.78-.45-2.92-2.19-4.52-3.09-1.12-.62-2.42-.82-3.67-.56-.9.19-1.83.73-2.03,1.62-.11.5.03,1.02.08,1.53.16,1.57-.49,3.11-1.28,4.48-2.84,4.89-7.48,8.7-9.64,13.92Z"/>
  <path class="cls-6" d="M93.24,33.52c0,8.41-6.82,15.22-15.23,15.22-8.41,0-15.22-6.82-15.22-15.23,0-8.41,6.82-15.22,15.23-15.22,2.89,0,5.72.82,8.16,2.37,4.4,2.79,7.07,7.64,7.07,12.86Z"/>
  <path class="cls-5" d="M144.65,101.63v-7.05H11.18c.25.37.5.73.76,1.09.19.46.46.89.79,1.26.17.2.37.38.57.55,2.89,3.69,6.19,6.82,9.81,9.18,2.06,1.35,4.27,2.45,6.59,3.29h110.75l4.2-8.32Z"/>
  <path class="cls-6" d="M80.87,86.51c-2.05-.16-4.17-.67-6.1.03-.66.26-1.28.6-1.86,1.01-2.08,1.4-4,3.02-5.71,4.85-.5.53-.98,1.08-1.29,1.74-.43.93-.47,1.98-.75,2.97-.16.56-.41,1.13-.32,1.71s.77,1.09,1.26.79h0c-.09.6.32,1.17.92,1.26.07.01.14.01.21.01.76-.03,1.5-.29,2.11-.74h0c.04.38.37.66.75.64,1.31-.09,2.55-.75,3.67-1.48,1.31-.85,2.62-1.82,4.15-2.11-.95.43-1.78,1.08-2.43,1.88-.25.31-.49.67-.21,1.15.17.27.42.47.72.57,1.72.6,3.59-.39,4.74-1.78.46-.56.87-1.21,1.51-1.55,1.02-.55,2.29-.16,3.44-.32,1.28-.17,2.35-1.01,3.53-1.55,1.56-.71,3.31-.9,4.97-1.33.2-.03.39-.12.52-.27.1-.17.15-.38.13-.58,0-2.06-.16-4.13-.47-6.17-.03-.33-.13-.65-.29-.93-.33-.47-.95-.6-1.52-.7-.9-.15-1.92-.49-2.83-.49-.87,0-1.72.49-2.55.74-2.05.6-4.2.81-6.33.65Z"/>
  <path class="cls-7" d="M90.4,83.79c-2.26.24-4.39,1.19-6.07,2.71,1.88-.47,3.9-.94,5.71-.26,2.46.93,3.7,3.69,2.77,6.15-.45,1.19-1.36,2.14-2.51,2.66.37.41.9.61,1.44.77,3.87,1.13,8.01.45,11.96-.32.72-.14,1.51-.33,1.95-.92.39-.54.38-1.26.35-1.93-.1-1.93-.27-3.92-1.14-5.64-1.18-2.33-3.24-3.2-5.72-2.93-2.92.31-5.81-.6-8.73-.3Z"/>
  <path class="cls-9" d="M115.01,59.09c1.25,1.19,2.15,2.69,2.98,4.2,2.8,5.12,4.95,10.58,6.39,16.24.14.56.28,1.13.61,1.6.48.68,1.3,1.06,1.83,1.7.63.78.75,1.88.55,2.86s-.7,1.88-1.21,2.75c-1.37,2.38-2.99,4.83-5.52,5.92-1.06.45-2.21.64-3.35.79-4.29.56-8.62.7-12.93.42.75-.87.83-2.16.56-3.29s-.82-2.15-1.21-3.24c-.3-.85-.51-1.75-1.04-2.48-.39-.5-.87-.92-1.42-1.25-1.24-.79-2.64-1.3-4.09-1.5,1.08-.84,2.48-1.12,3.8-1.51s2.7-.97,3.39-2.16c.41-.71.53-1.55.58-2.37.17-2.47-.12-4.95-.85-7.31-.49-1.57-1.17-3.22-.75-4.8.21-.8.69-1.51,1.17-2.18.92-1.33,1.87-2.68,3.21-3.58,1.16-.77,2.53-1.14,3.91-1.23,1.03-.07,2.6-.32,3.39.42Z"/>
  <path class="cls-5" d="M60.76,105.3c-.01,1.57-4.29,3.32-9.24,3.32s-9.09-1.74-9.15-3.32c-.23-5.47,4.2-2.39,9.15-2.39s9.29-3.91,9.24,2.39Z"/>
  <path class="cls-8" d="M60.76,105.3c-.01,1.57-4.29,3.32-9.24,3.32s-9.09-1.74-9.15-3.32c-.23-5.47,4.2-2.39,9.15-2.39s9.29-3.91,9.24,2.39Z"/>
  <path class="cls-5" d="M60.48,102.91c0,1.58-4.02,3.32-8.97,3.32s-8.97-1.74-8.97-3.32,4.01-2.39,8.97-2.39,8.97.82,8.97,2.39Z"/>
  <path class="cls-3" d="M60.48,102.91c0,1.58-4.02,3.32-8.97,3.32s-8.97-1.74-8.97-3.32,4.01-2.39,8.97-2.39,8.97.82,8.97,2.39Z"/>
  <path class="cls-5" d="M58.73,102.28c0,1.23-3.35,2.58-7.21,2.58s-7.09-1.36-7.14-2.58c-.18-4.27,3.28-1.87,7.14-1.87s7.25-3.05,7.21,1.87Z"/>
  <path class="cls-8" d="M58.73,102.28c0,1.23-3.35,2.58-7.21,2.58s-7.09-1.36-7.14-2.58c-.18-4.27,3.28-1.87,7.14-1.87s7.25-3.05,7.21,1.87Z"/>
  <path class="cls-5" d="M58.52,100.12c0,1.37-3.13,2.89-6.99,2.89s-7-1.51-7-2.89,3.13-2.08,7-2.08,6.99.71,6.99,2.08Z"/>
  <path class="cls-3" d="M58.52,100.12c0,1.37-3.13,2.89-6.99,2.89s-7-1.51-7-2.89,3.13-2.08,7-2.08,6.99.71,6.99,2.08Z"/>
  <path class="cls-5" d="M34.76,109.22s1.32-1.46,1.55-3.1-6.47-4.16-6.47-4.16c0,0-2.32,1.36-2.4,2.63,0,0,4.44,4.78,7.32,4.63Z"/>
  <path class="cls-8" d="M34.76,109.22s1.32-1.46,1.55-3.1-6.47-4.16-6.47-4.16c0,0-2.32,1.36-2.4,2.63,0,0,4.44,4.78,7.32,4.63Z"/>
  <ellipse class="cls-5" cx="30.98" cy="107.05" rx="1.46" ry="4.34" transform="translate(-76.76 78.53) rotate(-59.03)"/>
  <ellipse class="cls-3" cx="30.98" cy="107.05" rx="1.46" ry="4.34" transform="translate(-76.76 78.53) rotate(-59.03)"/>
  <polygon class="cls-5" points="36.4 105.62 40.21 99.27 36.34 95.98 33.32 95.42 32.38 97.12 29.73 102.03 36.4 105.62"/>
  <polygon class="cls-3" points="36.4 105.62 40.21 99.27 36.34 95.98 33.32 95.42 32.38 97.12 29.73 102.03 36.4 105.62"/>
  <path class="cls-5" d="M40.26,99.9s2.57-2.73,1.91-4.21-4.15-4.44-6.37-3.99-2.58,3.73-2.58,3.73l7.03,4.47Z"/>
  <path class="cls-8" d="M40.26,99.9s2.57-2.73,1.91-4.21-4.15-4.44-6.37-3.99-2.58,3.73-2.58,3.73l7.03,4.47Z"/>
  <path class="cls-5" d="M11.01,87.89l19.7,11.98s1.87-.24,1.67-2.75l-19.51-12.11c-.4-.25-.87-.35-1.33-.29-.53.07-1.17.27-1.37.77-.05.13-.09.26-.11.4-.11.79.26,1.58.95,1.99Z"/>
  <path class="cls-8" d="M11.01,87.89l19.7,11.98s1.87-.24,1.67-2.75l-19.51-12.11c-.4-.25-.87-.35-1.33-.29-.53.07-1.17.27-1.37.77-.05.13-.09.26-.11.4-.11.79.26,1.58.95,1.99Z"/>
  <path class="cls-5" d="M36.4,106.51c.21-.01.39-.16.44-.36.1-.34-.08-.66-.27-.94-.33-.48-.74-.91-1.22-1.25-.8-.58-1.58-1.23-2.49-1.66-.53-.23-1.08-.41-1.64-.52-.42-.1-.86-.14-1.29-.14-.21,0-.38.18-.37.39,0,.11.05.21.14.28h0c.2.13.42.23.66.28,1.17.35,2.26.94,3.28,1.62.55.35,1.06.76,1.53,1.21.31.31.71,1.1,1.22,1.09Z"/>
  <path class="cls-8" d="M36.4,106.51c.21-.01.39-.16.44-.36.1-.34-.08-.66-.27-.94-.33-.48-.74-.91-1.22-1.25-.8-.58-1.58-1.23-2.49-1.66-.53-.23-1.08-.41-1.64-.52-.42-.1-.86-.14-1.29-.14-.21,0-.38.18-.37.39,0,.11.05.21.14.28h0c.2.13.42.23.66.28,1.17.35,2.26.94,3.28,1.62.55.35,1.06.76,1.53,1.21.31.31.71,1.1,1.22,1.09Z"/>
  <path class="cls-5" d="M39.54,100.38s1.93.05.33-1.9-4.46-3.87-6.5-3.44c0,0-.84.7-.11.82.69.11,3.92.75,5.4,2.55.16.2.34.37.54.53.35.28.82.82.33,1.43Z"/>
  <path class="cls-8" d="M39.54,100.38s1.93.05.33-1.9-4.46-3.87-6.5-3.44c0,0-.84.7-.11.82.69.11,3.92.75,5.4,2.55.16.2.34.37.54.53.35.28.82.82.33,1.43Z"/>
  <ellipse class="cls-5" cx="38.97" cy="93.87" rx="1.46" ry="4.34" transform="translate(-61.57 78.98) rotate(-59.03)"/>
  <ellipse class="cls-3" cx="38.97" cy="93.87" rx="1.46" ry="4.34" transform="translate(-61.57 78.98) rotate(-59.03)"/>
  <path class="cls-6" d="M29.94,95.6c-.05.71-.46,1.35-1.08,1.71-1.01.54-2.43.06-2.91-.98-.25-.54-.25-1.15-.3-1.75-.02-.2-.04-.39-.08-.58-.15-.78-.79-1.6-1.57-1.45-.64.13-.98.84-1.06,1.49-.02.18-.03.36-.03.54,0,.19,0,.37.02.56.02.38.05.77.05,1.15,0,.75-.16,1.55-.71,2.07-.66.63-1.67.66-2.59.65-2.23-.02-4.71-.15-6.39-1.52-.21-.17-.4-.35-.57-.55-.33-.38-.59-.8-.79-1.26-.15-.35-.26-.72-.34-1.09-.25-1.17-.19-2.44.01-3.63.13-.77.39-1.62.96-2.12.13-.12.29-.21.45-.28.27-.11.58-.15.82-.33s.39-.51.64-.7c.5-.39,1.26-.22,1.85-.36h.06c.63-.16,1.22-.51,1.82-.76.26-.11.52-.22.77-.31.65-.26,1.34-.36,2.04-.3,2.26.26,4.97,1.63,6.52,3.28.38.38.68.83.87,1.34.13.42.2.86.21,1.29.04.62.07,1.24.38,1.77.19.32.46.58.66.9.04.07.08.15.12.23.14.32.19.67.16,1.01Z"/>
  <path class="cls-7" d="M24.96,88.16c.92.48,1.83,1.01,2.55,1.76s1.26,1.71,1.3,2.75c.63-.77,1.18-1.6,1.62-2.49.35-.7.64-1.53.33-2.25-.15-.31-.36-.58-.61-.8-1.36-1.28-3.18-1.99-5.03-2.29-1.99-.32-5.98-1-6.28,1.9,2.23-.11,4.13.39,6.13,1.42Z"/>
  <path class="cls-9" d="M49.67,51.04c-1.48.64-3.2.19-4.76.57-1.15.28-2.14,1.01-3.08,1.74-1.86,1.46-3.7,3.08-4.7,5.23-.33.7-.56,1.45-.95,2.11-.63,1.08-1.64,1.88-2.69,2.56-2.68,1.73-5.8,2.81-8.19,4.93-1.02.9-1.88,1.98-2.68,3.08-.94,1.3-1.84,2.74-1.86,4.34,0,.63.12,1.26,0,1.88-.27,1.38-1.66,2.24-2.29,3.49-.6,1.2-.46,2.68-1.13,3.84-.44.75-1.24,1.51-.99,2.34,1.85-1.39,4.07-1.96,6.33-1.51,1.13.22,2.19.73,3.2,1.28,1.17.64,2.33,1.37,3.18,2.41s1.36,2.42,1.06,3.73c1.22-.6,1.95-1.89,2.45-3.16s.88-2.62,1.72-3.69c.43-.55.96-1.01,1.47-1.49,2.82-2.67,4.85-6.05,6.85-9.38,2.06-3.44,4.12-6.87,6.17-10.31.57-.95,1.14-1.91,1.55-2.95,1.38-3.47.49-7.52-.67-11.06Z"/>
  <ellipse class="cls-9" cx="135.79" cy="95.43" rx="8.59" ry="1.65"/>
  <ellipse class="cls-5" cx="135.64" cy="94.73" rx="1" ry="1.31"/>
  <ellipse class="cls-5" cx="135.64" cy="93.13" rx="1" ry="1.31"/>
  <ellipse class="cls-5" cx="135.64" cy="91.53" rx="1" ry="1.31"/>
  <ellipse class="cls-5" cx="135.64" cy="89.93" rx="1" ry="1.31"/>
  <ellipse class="cls-5" cx="135.64" cy="88.33" rx="1" ry="1.31"/>
  <ellipse class="cls-5" cx="135.64" cy="86.73" rx="1" ry="1.31"/>
  <ellipse class="cls-5" cx="135.64" cy="85.13" rx="1" ry="1.31"/>
  <path class="cls-9" d="M139.39,74.17c.14-.17.26-.36.37-.55l-2.63-.43,2.84.02c.55-1.2.58-2.57.09-3.8l-3.82,1.98,3.52-2.59c-1.32-2.29-4.26-3.08-6.55-1.75-2.29,1.32-3.08,4.26-1.75,6.55.11.2.24.39.38.57-.21.27-.4.56-.55.87l3.41,1.77-3.64-1.22c-.52,1.53-.23,3.23.77,4.5-1.64,2.08-1.28,5.1.81,6.73,2.08,1.64,5.1,1.28,6.73-.81,1.37-1.74,1.37-4.19,0-5.93,1.37-1.74,1.37-4.19,0-5.93h0Z"/>
  <path class="cls-2" d="M130.83,77.13c0,1.08.36,2.12,1.03,2.96-1.64,2.08-1.28,5.1.81,6.73,2.08,1.64,5.1,1.28,6.73-.81,1.37-1.74,1.37-4.19,0-5.93.64-.82-8.56-3.5-8.56-2.96Z"/>
  <path class="cls-5" d="M70.48,26.87c1.06.41,2.08.99,3.22,1.07,1.44.1,2.79-.64,4.22-.84,2.62-.37,5.1,1.06,7.56,2.02s5.62,1.37,7.42-.56c1.53-1.64,1.32-4.37.09-6.24s-3.24-3.08-5.23-4.12c-2.19-1.15-4.48-2.19-6.92-2.6-5.18-.86-10.44,1.28-14.74,4.3-1.43,1-2.84,2.17-3.52,3.77-.39.9-.51,2.06-.17,3,.55,1.55.91,1.37,2.06.96,2.19-.77,3.48-1.74,6.01-.77Z"/>
</svg>
