<?xml version="1.0" encoding="UTF-8"?>
<svg xmlns="http://www.w3.org/2000/svg" viewBox="0 0 150 120">
  <defs>
    <style>
      .cls-1 {
        fill: #ffb8b8;
      }

      .cls-1, .cls-2, .cls-3, .cls-4, .cls-5, .cls-6, .cls-7 {
        stroke-width: 0px;
      }

      .cls-2 {
        fill: #3f3d56;
      }

      .cls-3 {
        fill: #2f2e41;
      }

      .cls-4 {
        fill: #ccc;
      }

      .cls-5 {
        fill: #e6e6e6;
      }

      .cls-6 {
        fill: #000;
        isolation: isolate;
        opacity: .2;
      }

      .cls-7 {
        fill: #6c63ff;
      }
    </style>
  </defs>
  <path class="cls-2" d="M155.78,116.02h-64.83c-.12,0-.22-.1-.22-.22s.1-.22.22-.22h64.83c.12,0,.22.1.22.22s-.1.22-.22.22Z"/>
  <polygon class="cls-1" points="115.31 113.55 112.67 113.55 111.41 103.37 115.31 103.37 115.31 113.55"/>
  <path class="cls-3" d="M110.78,112.8h5.09v3.21h-8.3c0-1.77,1.44-3.21,3.21-3.21Z"/>
  <polygon class="cls-1" points="134.47 110.56 132.07 111.66 126.69 102.92 130.24 101.3 134.47 110.56"/>
  <path class="cls-3" d="M130.04,111.76l4.63-2.12h0l1.33,2.92h0l-7.55,3.45h0c-.74-1.61-.03-3.51,1.58-4.25Z"/>
  <path class="cls-1" d="M126.78,79.21c.96-.72,1.15-2.08.43-3.03-.08-.1-.16-.2-.26-.28l3.1-7.04-3.94.67-2.34,6.59c-.76.93-.62,2.3.32,3.06.78.63,1.89.65,2.69.04Z"/>
  <path class="cls-3" d="M115.14,110.87h-2.52c-.51,0-.93-.39-.97-.9l-2.67-36.73c-.04-.53.36-1,.9-1.04.05,0,.11,0,.16,0l15.88,1.55c.49.05.87.45.87.95l.31,16.2c0,.09.02.17.05.26l5.98,15.52c.19.5-.06,1.06-.56,1.25,0,0,0,0-.01,0l-2.56.94c-.46.17-.97-.03-1.2-.47l-7.35-14.29c-.04-.08-.07-.16-.09-.25l-1.26-6.05c-.08-.41-.48-.67-.89-.58-.32.07-.56.33-.6.65l-2.53,22.12c-.06.49-.47.86-.96.86Z"/>
  <circle class="cls-1" cx="116.4" cy="39.22" r="5.29"/>
  <path class="cls-7" d="M109.99,73.45c.68.47,8.31,5.49,17,1.5-.11-.97-1.2-10.72-.25-17.91.45-3.41-.91-6.57-3.73-8.67-3.12-2.31-7.24-2.75-10.77-1.16h0c-.14.06-.29.13-.43.2l-1.82,26.04Z"/>
  <path class="cls-7" d="M127.08,74.86c-.27,0-.53-.11-.71-.31l-1.16-1.26c-.23-.25-.31-.6-.21-.93l2.65-8.97-4.03-8.47c-.18-.37-.22-.79-.12-1.19.23-.96,1.2-1.55,2.16-1.31.49.12.91.44,1.15.89l5.45,8.84c.43.7.49,1.56.15,2.31l-4.44,9.83c-.13.3-.41.51-.73.56-.05,0-.1.01-.15.01Z"/>
  <path class="cls-6" d="M113.91,73.72h-2.11l3.69-17.36.21.03-.82,16.41c-.03.52-.45.92-.97.92Z"/>
  <path class="cls-1" d="M111.95,78.03c.79-.9.69-2.27-.21-3.06-.1-.08-.2-.16-.31-.22l1.57-7.53-3.72,1.47-.92,6.93c-.55,1.07-.13,2.38.94,2.93.9.46,1.99.24,2.64-.52Z"/>
  <path class="cls-7" d="M111.74,73.74s-.07,0-.11,0l-2.25-.25c-.51-.06-.88-.5-.86-1l.93-22.57c.07-1.61,1.42-2.86,3.03-2.79,1.32.05,2.44,1,2.73,2.29l.6,2.76v.02s-3.11,20.72-3.11,20.72c-.07.47-.48.83-.96.83Z"/>
  <path class="cls-3" d="M120.76,43.89c-.55.09-1-.67-1.07-1.21s.13-1.05.15-1.58-.23-1.18-.78-1.34c-.58-.17-1.12.3-1.71.24-.83-.08-1.24-1.05-1.35-1.83s-.18-1.71-.9-2.16c-.72-.45-1.6-.12-2.42-.11-1.39.02-2.8-1.04-3.13-2.34.35.1.72-.05.9-.36.14-.33.04-.72-.24-.94l1.57.77c-.22-.44.11-.94.56-1.1s.97-.09,1.46-.01c2.47.38,5.32.19,6.96,2.07,1.13,1.3,2.07,3.78,1.94,5.38s-1.94,4.52-1.94,4.52Z"/>
  <path class="cls-4" d="M60.73,103.53H4.09c-.83,0-1.51-.68-1.51-1.51L0,5.76c0-.83.67-1.51,1.51-1.51h56.64c.83,0,1.51.68,1.51,1.51l.47,17.44h-.43s-.47-17.43-.47-17.43c0-.6-.48-1.08-1.08-1.08,0,0,0,0,0,0H1.51c-.59,0-1.08.48-1.08,1.08l2.58,96.26c0,.6.48,1.08,1.08,1.08h56.64c.59,0,1.08-.48,1.08-1.08l-.5-18.73h.43s.5,18.73.5,18.73c0,.83-.67,1.51-1.51,1.51h0Z"/>
  <rect class="cls-4" x="60.5" y="49.04" width=".43" height="8.27" transform="translate(-1.41 1.65) rotate(-1.54)"/>
  <path class="cls-4" d="M55.65,95.04H8.73c-.71,0-1.28-.58-1.29-1.29L5.3,14.02c0-.71.57-1.29,1.29-1.29h46.92c.71,0,1.28.58,1.29,1.29l.39,9.17-.43.02-.39-9.18c0-.47-.38-.86-.85-.86,0,0,0,0,0,0H6.59c-.47,0-.85.38-.86.86l2.14,79.74c0,.47.38.86.85.86h46.92c.47,0,.85-.38.86-.86l-.28-10.47h.43s.28,10.46.28,10.46c0,.71-.57,1.29-1.29,1.29h0Z"/>
  <rect class="cls-4" x="55.44" y="49.25" width=".43" height="8.19" transform="translate(-1.39 1.49) rotate(-1.52)"/>
  <path class="cls-2" d="M68.14,49.25H13.22c-.83,0-1.5-.67-1.51-1.5l-.86-23.27c0-.83.68-1.51,1.51-1.51h54.92c.83,0,1.5.67,1.51,1.5l.86,23.27c0,.83-.68,1.51-1.51,1.51ZM11.28,24.48l.86,23.27c0,.59.48,1.08,1.08,1.08h54.92c.59,0,1.07-.48,1.08-1.07l-.86-23.27c0-.59-.48-1.08-1.08-1.08H12.36c-.59,0-1.07.48-1.08,1.07Z"/>
  <path class="cls-2" d="M78.47,83.5H23.55c-.83,0-1.5-.67-1.51-1.5l-.86-23.27c0-.83.68-1.51,1.51-1.51h54.92c.83,0,1.5.67,1.51,1.5l.86,23.27c0,.83-.68,1.51-1.51,1.51ZM21.62,58.72l.86,23.27c0,.59.48,1.08,1.08,1.08h54.92c.59,0,1.07-.48,1.08-1.07l-.86-23.27c0-.59-.48-1.08-1.08-1.08H22.69c-.59,0-1.07.48-1.08,1.07Z"/>
  <path class="cls-7" d="M36.58,62.28c-.77,0-1.4.63-1.4,1.4s.63,1.4,1.4,1.4h28c.77,0,1.4-.63,1.4-1.4s-.63-1.4-1.4-1.4h-28Z"/>
  <path class="cls-7" d="M36.58,68.96c-.77,0-1.4.63-1.4,1.4s.63,1.4,1.4,1.4h28c.77,0,1.4-.63,1.4-1.4s-.63-1.4-1.4-1.4h-28Z"/>
  <path class="cls-7" d="M36.58,75.64c-.77,0-1.4.63-1.4,1.4s.63,1.4,1.4,1.4h28c.77,0,1.4-.63,1.4-1.4s-.63-1.4-1.4-1.4h-28Z"/>
  <path class="cls-7" d="M26.25,28.04c-.77,0-1.4.63-1.4,1.4s.63,1.4,1.4,1.4h28c.77,0,1.4-.63,1.4-1.4s-.63-1.4-1.4-1.4h-28Z"/>
  <path class="cls-7" d="M26.25,34.72c-.77,0-1.4.63-1.4,1.4s.63,1.4,1.4,1.4h28c.77,0,1.4-.63,1.4-1.4s-.63-1.4-1.4-1.4h-28Z"/>
  <path class="cls-7" d="M26.25,41.39c-.77,0-1.4.63-1.4,1.4s.63,1.4,1.4,1.4h28c.77,0,1.4-.63,1.4-1.4s-.63-1.4-1.4-1.4h-28Z"/>
  <circle class="cls-5" cx="30.23" cy="8.55" r="2.15"/>
</svg>
