<?xml version="1.0" encoding="UTF-8"?>
<svg xmlns="http://www.w3.org/2000/svg" viewBox="0 0 150 120">
  <defs>
    <style>
      .cls-1 {
        fill: #ffb8b8;
      }

      .cls-1, .cls-2, .cls-3, .cls-4, .cls-5, .cls-6 {
        stroke-width: 0px;
      }

      .cls-2 {
        fill: #2f2e41;
      }

      .cls-3 {
        fill: #ccc;
      }

      .cls-4 {
        fill: #fff;
      }

      .cls-5 {
        fill: #e6e6e6;
      }

      .cls-6 {
        fill: #6c63ff;
      }
    </style>
  </defs>
  <g id="Group_16" data-name="Group 16">
    <path id="Path_204-1566" data-name="Path 204-1566" class="cls-5" d="M9.22,28.54C4.13,28.54,0,24.41,0,19.32c0-5.09,4.12-9.22,9.21-9.22h83.9c5.09,0,9.22,4.13,9.22,9.22s-4.13,9.22-9.22,9.22H9.22Z"/>
    <path id="Path_205-1567" data-name="Path 205-1567" class="cls-4" d="M9.22,11.3c-4.43,0-8.02,3.59-8.02,8.02s3.59,8.02,8.02,8.02h83.89c4.43,0,8.02-3.59,8.02-8.02s-3.59-8.02-8.02-8.02H9.22Z"/>
    <rect id="Rectangle_15" data-name="Rectangle 15" class="cls-5" x="34.4" y="11.3" width=".27" height="16.03"/>
    <rect id="Rectangle_17" data-name="Rectangle 17" class="cls-5" x="67.67" y="11.3" width=".27" height="16.03"/>
    <rect id="Rectangle_7" data-name="Rectangle 7" class="cls-6" x="34.67" y="11.3" width="33" height="16.03"/>
    <path id="Path_198-1568" data-name="Path 198-1568" class="cls-4" d="M51.18,14.43c-2.71,0-4.9,2.19-4.9,4.9s2.19,4.9,4.9,4.9,4.9-2.19,4.9-4.9-2.19-4.9-4.9-4.9h0ZM51.18,15.9c.81,0,1.47.66,1.47,1.47s-.66,1.47-1.47,1.47c-.81,0-1.47-.66-1.47-1.47,0-.81.66-1.47,1.47-1.47h0ZM51.18,22.98c-1.18,0-2.28-.59-2.94-1.57.02-.98,1.96-1.52,2.94-1.52s2.92.54,2.94,1.52c-.66.98-1.76,1.56-2.94,1.57Z"/>
    <path id="Path_200-1569" data-name="Path 200-1569" class="cls-5" d="M17.92,14.43c-2.71,0-4.9,2.19-4.9,4.9s2.19,4.9,4.9,4.9,4.9-2.19,4.9-4.9-2.19-4.9-4.9-4.9h0ZM17.92,15.9c.81,0,1.47.66,1.47,1.47,0,.81-.66,1.47-1.47,1.47-.81,0-1.47-.66-1.47-1.47s.66-1.47,1.47-1.47h0ZM17.92,22.98c-1.18,0-2.28-.59-2.94-1.57.02-.98,1.96-1.52,2.94-1.52s2.92.54,2.94,1.52c-.66.98-1.76,1.56-2.94,1.57Z"/>
    <path id="Path_242-1570" data-name="Path 242-1570" class="cls-5" d="M84.42,14.43c-2.71,0-4.9,2.19-4.9,4.9s2.19,4.9,4.9,4.9,4.9-2.19,4.9-4.9-2.19-4.9-4.9-4.9h0ZM84.42,15.9c.81,0,1.47.66,1.47,1.47,0,.81-.66,1.47-1.47,1.47-.81,0-1.47-.66-1.47-1.47s.66-1.47,1.47-1.47h0ZM84.42,22.98c-1.18,0-2.28-.59-2.94-1.57.02-.98,1.96-1.52,2.94-1.52s2.92.54,2.94,1.52c-.66.98-1.76,1.56-2.94,1.57Z"/>
    <rect id="Rectangle_9" data-name="Rectangle 9" class="cls-6" x="45.46" y="35.25" width="11.44" height="11.44" rx="1.23" ry="1.23"/>
    <ellipse id="Ellipse_29" data-name="Ellipse 29" class="cls-5" cx="122.44" cy="109.32" rx="27.46" ry="3.68"/>
    <rect id="Rectangle_12" data-name="Rectangle 12" class="cls-5" x="78.7" y="35.22" width="11.44" height="11.44" rx="1.23" ry="1.23"/>
    <rect id="Rectangle_13" data-name="Rectangle 13" class="cls-4" x="80.33" y="36.81" width="8.33" height="8.33"/>
    <path id="Path_202-1571" data-name="Path 202-1571" class="cls-4" d="M50.65,42.75l-1.45-1.86.84-.65.68.88,2.31-2.44.77.73-3.16,3.34Z"/>
    <path id="Path_203-1572" data-name="Path 203-1572" class="cls-5" d="M83.94,42.75l-1.45-1.86.84-.65.68.88,2.31-2.44.77.73-3.16,3.34Z"/>
    <rect id="Rectangle_18" data-name="Rectangle 18" class="cls-5" x="12.2" y="35.22" width="11.44" height="11.44" rx="1.23" ry="1.23"/>
    <rect id="Rectangle_19" data-name="Rectangle 19" class="cls-4" x="13.84" y="36.81" width="8.33" height="8.33"/>
    <path id="Path_243-1573" data-name="Path 243-1573" class="cls-5" d="M17.44,42.75l-1.45-1.86.84-.65.68.88,2.31-2.44.77.73-3.16,3.34Z"/>
    <g id="Group_15" data-name="Group 15">
      <path id="Path_257-1574" data-name="Path 257-1574" class="cls-1" d="M140.95,106.42h-2.69l-1.28-10.38h3.97v10.38Z"/>
      <path id="Path_258-1575" data-name="Path 258-1575" class="cls-2" d="M136.33,105.65h5.19v3.27h-8.46c0-1.8,1.46-3.27,3.27-3.27Z"/>
      <path id="Path_259-1576" data-name="Path 259-1576" class="cls-1" d="M113.44,106.42h-2.69l-1.28-10.38h3.97v10.38Z"/>
      <path id="Path_260-1577" data-name="Path 260-1577" class="cls-2" d="M108.83,105.65h5.19v3.27h-8.46c0-1.8,1.46-3.27,3.27-3.27h0Z"/>
      <path id="Path_261-1578" data-name="Path 261-1578" class="cls-2" d="M122.44,29.39v-1.18c0-4.19,3.4-7.59,7.59-7.59h0c4.19,0,7.59,3.4,7.59,7.59v1.18c0,3.02-2.45,5.47-5.47,5.47h-4.24c-3.02,0-5.47-2.45-5.47-5.47h0Z"/>
      <circle id="Ellipse_36" data-name="Ellipse 36" class="cls-1" cx="130.03" cy="29.49" r="5.78"/>
      <path id="Path_263-1579" data-name="Path 263-1579" class="cls-1" d="M98.57,49.37c.89-.84,2.28-.8,3.12.09.09.09.17.2.24.31l4.96-.94,1.3,2.87-7.02,1.23c-1.07.6-2.42.22-3.02-.84-.5-.89-.33-2.01.42-2.71Z"/>
      <path id="Path_264-1580" data-name="Path 264-1580" class="cls-3" d="M125.52,38.91l.06.1-8.13,5.36-13.72,4.38c-.38.12-.61.49-.57.88l.3,2.58c.05.45.46.78.91.72.03,0,.05,0,.08-.01l12.91-2.77c.62-.13,1.22-.39,1.74-.76l9.13-6.5c1.06-.75,1.3-2.22.55-3.28-.73-1.03-2.15-1.29-3.21-.6l-.06-.1Z"/>
      <path id="Path_265-1581" data-name="Path 265-1581" class="cls-2" d="M138.3,103.47c-.42,0-.8-.25-.97-.64l-12.34-30.5c-.08-.18-.29-.26-.46-.18-.09.04-.17.12-.2.22l-10.07,29.69c-.17.56-.77.87-1.32.7-.02,0-.04-.01-.06-.02l-3.38-1.27c-.37-.14-.64-.48-.68-.87-1.52-13.23,11.73-46.63,11.86-46.97l.04-.09,12.08,2.67.03.03c4.82,5.26,8.78,38.4,9.52,45,.06.49-.23.95-.7,1.12l-2.98,1.05c-.11.04-.23.06-.35.06h0Z"/>
      <path id="Path_266-1582" data-name="Path 266-1582" class="cls-3" d="M127.9,57.29c-2.93,0-6.19-.58-7.19-2.99l-.02-.06.03-.05c.79-1.3,1.84-3.52,1.28-3.93-1.11-.82-1.65-2.17-1.6-4.01.1-4,2.83-7.54,6.77-8.83h0c1.1-.35,2.22-.64,3.36-.86,1.68-.34,3.42.09,4.74,1.17,1.34,1.09,2.13,2.72,2.14,4.44.04,4.27-.62,10.22-3.98,14.3-.16.19-.38.32-.62.36-1.62.29-3.26.45-4.91.46Z"/>
      <path id="Path_267-1583" data-name="Path 267-1583" class="cls-1" d="M126.81,57.13c.33-1.19,1.56-1.89,2.75-1.57.12.03.23.07.34.13l3.76-3.43,2.62,1.76-5.38,4.76c-.5.9-1.55,1.35-2.55,1.08-1.18-.32-1.87-1.54-1.55-2.72,0,0,0-.01,0-.02Z"/>
      <path id="Path_268-1584" data-name="Path 268-1584" class="cls-3" d="M133.07,57.17c-.24,0-.48-.08-.67-.24l-1.48-1.21c-.45-.37-.52-1.04-.15-1.49.05-.06.11-.12.18-.17l6.23-4.78c.15-.12.18-.34.07-.49l-3.84-5.08c-.92-1.21-.83-2.92.21-4.03h0c1.1-1.19,2.93-1.34,4.21-.34l.02.03,4.01,5.75c1.55,1.22,1.83,3.47.61,5.02-.2.25-.43.48-.69.67l-8.06,6.16c-.18.13-.4.21-.63.21h0Z"/>
      <path id="Path_269-1585" data-name="Path 269-1585" class="cls-2" d="M124.91,27.86v-2.87l5.12-2.24,4.89,2.24v2.87c0,.26-.21.47-.47.47h-9.07c-.26,0-.47-.21-.47-.47h0Z"/>
      <circle id="Ellipse_30" data-name="Ellipse 30" class="cls-2" cx="134.41" cy="20.32" r="3.21"/>
      <path id="Path_185-1586" data-name="Path 185-1586" class="cls-2" d="M131.45,18.59c0-1.77,1.44-3.21,3.21-3.21.21,0,.42.02.63.06-1.6-.76-3.52-.07-4.27,1.54-.76,1.6-.07,3.52,1.54,4.27.24.11.49.19.74.24-1.13-.53-1.84-1.66-1.84-2.9h0Z"/>
    </g>
  </g>
</svg>
